<svg xmlns="http://www.w3.org/2000/svg" viewBox="0 0 120 120">
  <ellipse cx="60" cy="104" rx="38" ry="5" fill="#2d3142" opacity="0.12"/>
  <path d="M20 82 C12 68 18 50 32 42 C38 28 56 20 70 27 C86 24 100 36 100 52 C108 64 106 82 94 90 C82 98 44 100 30 94 C25 91 22 87 20 82 Z" fill="#a3acbf" stroke="#2d3142" stroke-width="4" stroke-linejoin="round"/>
  <path d="M38 48 C44 38 54 33 64 34" fill="none" stroke="#ffffff" stroke-opacity="0.7" stroke-width="5" stroke-linecap="round"/>
  <path d="M64 58 L72 66 L67 76" fill="none" stroke="#2d3142" stroke-width="3" stroke-linecap="round" stroke-linejoin="round"/>
  <path d="M40 74 L48 78" fill="none" stroke="#2d3142" stroke-width="3" stroke-linecap="round"/>
</svg>
